<svg width="40" height="32" viewBox="0 0 40 32" fill="none" xmlns="http://www.w3.org/2000/svg">
<path fill-rule="evenodd" clip-rule="evenodd" d="M8.30813 0.326172C6.02578 0.326172 4.33695 2.25724 4.41258 4.35143C4.48516 6.36338 4.39086 8.96915 3.71227 11.0942C3.03125 13.2251 1.88031 14.5755 0 14.7488V16.7057C1.88031 16.8794 3.03125 18.2291 3.71219 20.3604C4.39086 22.4854 4.48508 25.0912 4.4125 27.1031C4.33687 29.197 6.0257 31.1284 8.30844 31.1284H31.6949C33.9773 31.1284 35.6658 29.1973 35.5902 27.1031C35.5176 25.0912 35.6119 22.4854 36.2905 20.3604C36.9715 18.2291 38.1196 16.8789 40 16.7057V14.7488C38.1197 14.5751 36.9716 13.2254 36.2905 11.0942C35.6118 8.96945 35.5176 6.36338 35.5902 4.35143C35.6658 2.25754 33.9773 0.326172 31.6949 0.326172H8.30813ZM27.1187 19.287C27.1187 22.1706 24.8936 23.9194 21.201 23.9194H14.9152C14.7354 23.9194 14.563 23.8504 14.4358 23.7275C14.3087 23.6045 14.2373 23.4379 14.2373 23.264V8.19061C14.2373 8.0168 14.3087 7.8501 14.4358 7.72719C14.563 7.60429 14.7354 7.53524 14.9152 7.53524H21.1652C24.2442 7.53524 26.2649 9.14746 26.2649 11.6227C26.2649 13.3601 24.9055 14.9154 23.1737 15.1879V15.2785C25.5312 15.5285 27.1187 17.1069 27.1187 19.287ZM20.5156 9.61274H16.9316V14.5065H19.9502C22.2838 14.5065 23.5705 13.5981 23.5705 11.9745C23.5703 10.4529 22.4641 9.61274 20.5156 9.61274ZM16.9316 16.4482V21.8412H20.6475C23.0772 21.8412 24.3641 20.8988 24.3641 19.1277C24.3641 17.3566 23.0411 16.4479 20.4913 16.4479L16.9316 16.4482Z" fill="#8712FB"/>
</svg>
