<svg width="39" height="46" viewBox="0 0 39 46" fill="none" xmlns="http://www.w3.org/2000/svg">
<path d="M12.3731 45.4511C9.60364 44.2731 7.01205 41.2787 7.00591 38.2153C6.99822 34.8751 9.14916 32.0393 11.8245 30.1758C11.5029 31.3716 11.3274 32.4653 12.1241 33.5349C12.8648 34.5293 14.1621 35.0124 15.3872 34.7504C18.2493 34.1336 18.3807 31.0369 16.6838 29.2333C15.0061 27.4465 13.3831 25.4287 14.0219 22.8378C14.3415 21.5393 15.1517 20.3225 16.1786 19.4531C15.3895 21.4938 17.6319 23.5064 19.1091 24.5085C21.6718 26.2476 24.4835 27.5622 26.8396 29.6007C29.3182 31.7433 31.1484 34.6404 30.7787 38.0005C30.3782 41.6425 27.4376 44.1756 24.1389 45.4545C31.1093 43.9404 38.3111 38.6165 38.4591 31.0091C38.5813 24.7502 34.2185 19.9336 28.8142 17.1759L28.5318 17.0243C28.6802 17.3786 28.7285 17.6799 28.7231 17.9495C28.7716 17.7506 28.8042 17.5461 28.8138 17.3351C28.8127 17.5858 28.7793 17.8349 28.7147 18.0772L28.7231 17.9491C28.6429 18.2815 28.5076 18.5985 28.3229 18.8875L28.402 18.8035C27.3236 20.5635 24.4051 20.9456 22.9629 19.1233C20.6449 16.1918 23.0115 13.0316 23.3425 9.92727C23.7575 6.03696 21.2784 2.26007 18.2044 0C19.8973 2.69524 17.6669 6.26078 15.8824 8.25433C14.1521 10.1866 12.0477 11.8002 10.1376 13.5559C8.0858 15.4417 6.11311 17.4281 4.42662 19.6413C1.05366 24.0711 -1.01123 29.6427 0.50622 35.1693C2.02291 40.692 6.88375 44.2076 12.3731 45.4511Z" fill="#EE4323"/>
</svg>
