<svg width="32" height="41" viewBox="0 0 32 41" fill="none" xmlns="http://www.w3.org/2000/svg">
<path d="M14.4249 0.727295H20.9743V30.7457C17.6196 31.3803 15.1499 31.63 12.4778 31.63C4.47847 31.6216 0.314453 28.0479 0.314453 21.1844C0.314453 14.5713 4.73133 10.2795 11.5758 10.2795C12.638 10.2795 13.4471 10.3631 14.4249 10.6135V0.727295ZM14.6544 16.0231C13.8873 15.7726 13.2552 15.6891 12.4459 15.6891C9.13334 15.6891 7.21993 17.7097 7.21993 21.2509C7.21993 24.6986 9.04913 26.6023 12.4039 26.6023C13.1287 26.6023 13.7188 26.5614 14.6544 26.4362V16.0231Z" fill="#2BA977"/>
<path d="M31.6853 11.0854V26.1152C31.6853 31.2912 31.2976 33.7803 30.1597 35.9263C29.0975 37.9894 27.6984 39.2904 24.8072 40.7273L18.7297 37.8634C21.6209 36.5198 23.0201 35.3325 23.9137 33.5206C24.8492 31.6678 25.1442 29.5218 25.1442 23.8774V11.0855H31.6853V11.0854ZM24.4842 0.727295H31.0337V7.38212H24.4842V0.727295Z" fill="#2BA977"/>
</svg>
