<svg width="40" height="35" viewBox="0 0 40 35" fill="none" xmlns="http://www.w3.org/2000/svg">
<mask id="mask0_6060_109640" style="mask-type:luminance" maskUnits="userSpaceOnUse" x="0" y="0" width="40" height="35">
<path d="M40 0.927246H0V34.5272H40V0.927246Z" fill="white"/>
</mask>
<g mask="url(#mask0_6060_109640)">
<path d="M13.8922 13.7859C15.3337 18.1993 15.8798 26.0724 20.0953 26.0724C20.4162 26.0724 20.7405 26.0409 21.066 25.9788C17.234 25.0844 16.7797 17.2969 14.4416 13.2642C14.255 13.4345 14.0718 13.6084 13.8921 13.7859" fill="url(#paint0_linear_6060_109640)"/>
<path d="M14.4421 13.2641C16.7804 17.2969 17.2347 25.0842 21.0667 25.9786C21.3676 25.9234 21.6694 25.8398 21.9716 25.734C18.5321 24.0471 17.5814 16.4848 14.9258 12.8442C14.7619 12.9811 14.6007 13.1211 14.4421 13.2642" fill="url(#paint1_linear_6060_109640)"/>
<path d="M17.8111 10.8667C17.4908 10.8667 17.1659 10.8982 16.8398 10.9603C15.9868 11.1212 15.1203 11.4889 14.2468 12.0453C14.4855 12.281 14.7124 12.5507 14.926 12.8452C15.8144 12.1071 16.6971 11.5618 17.5764 11.2339C17.8974 11.1137 18.2283 11.0217 18.5651 10.9588C18.3187 10.8968 18.0652 10.8658 17.8111 10.8667Z" fill="#14559A"/>
<path d="M24.6567 24.1777C25.0231 23.8846 25.3759 23.575 25.7143 23.2497C24.2495 18.8568 23.7253 10.8711 19.4802 10.8711C19.1767 10.8711 18.8705 10.8994 18.5647 10.9561C22.4316 11.9189 22.9269 20.3413 24.6567 24.1777Z" fill="url(#paint2_linear_6060_109640)"/>
<path d="M18.5647 10.9587C18.3183 10.8967 18.065 10.8658 17.8108 10.8667L19.4802 10.8729C19.1767 10.8729 18.8703 10.9012 18.5647 10.9585" fill="#3092C4"/>
<path d="M24.5821 25.1118C24.4161 24.9534 24.2585 24.7796 24.1034 24.594C23.3893 25.1002 22.6781 25.4841 21.9709 25.7338C22.2233 25.858 22.4906 25.949 22.7661 26.005C22.989 26.0502 23.2161 26.0727 23.4434 26.0721C24.2367 26.0721 24.8637 25.978 25.3978 25.7217C25.1037 25.5626 24.8343 25.3564 24.5821 25.1118Z" fill="#1969BC"/>
<path d="M17.5767 11.232C21.0399 13.0455 21.341 21.2582 24.1043 24.5929C24.2925 24.4598 24.4767 24.3214 24.6565 24.1774C22.9266 20.3411 22.4319 11.918 18.5659 10.9558C18.2288 11.0193 17.8978 11.1117 17.5767 11.232Z" fill="url(#paint3_linear_6060_109640)"/>
<path d="M14.9258 12.8437C17.5813 16.4842 18.532 24.0463 21.9717 25.7335C22.6787 25.4838 23.3901 25.0999 24.104 24.5937C21.3406 21.259 21.0395 13.0464 17.5762 11.2329C16.697 11.5601 15.8142 12.1055 14.9258 12.8436" fill="url(#paint4_linear_6060_109640)"/>
<path d="M12.1938 13.6777C11.7775 14.6199 11.3524 15.8583 10.8384 17.4747C11.8606 16.0329 12.8796 14.7904 13.8928 13.7842C13.7534 13.3546 13.6035 12.9585 13.4419 12.6055C13.0069 12.9402 12.5903 13.2981 12.194 13.6779" fill="url(#paint5_linear_6060_109640)"/>
<path d="M13.8108 12.3354C13.6865 12.4241 13.5635 12.5147 13.4421 12.6073C13.6036 12.9602 13.7528 13.3562 13.8924 13.7858C14.0724 13.6086 14.2556 13.4347 14.4418 13.2641C14.2456 12.9266 14.0372 12.615 13.8108 12.3354Z" fill="#2B74B1"/>
<path d="M14.2461 12.0431C14.0986 12.1369 13.9533 12.234 13.8101 12.3341C14.0366 12.6137 14.2448 12.9253 14.4418 13.2634C14.6 13.1198 14.7613 12.9796 14.9255 12.8429C14.712 12.5486 14.485 12.2787 14.2463 12.043" fill="#125A9E"/>
<path d="M37.8706 10.5291C35.9117 18.0918 31.8205 24.1661 28.3904 25.6976H28.3842C28.3216 25.7259 28.2598 25.7517 28.1987 25.7768C28.1902 25.7819 28.1826 25.7825 28.1762 25.7856C28.1582 25.7928 28.1414 25.7984 28.1235 25.8057C28.115 25.8107 28.1075 25.8125 28.0997 25.8155C28.0707 25.8259 28.0424 25.8345 28.0141 25.8459C28.0019 25.8512 27.9904 25.8542 27.9787 25.8584C27.9648 25.8637 27.9507 25.8683 27.9363 25.8721C27.9234 25.8771 27.9099 25.8809 27.895 25.8867C27.8827 25.8917 27.8699 25.8939 27.8584 25.899C27.8333 25.9062 27.8102 25.9123 27.7851 25.9209C27.7747 25.9209 27.7651 25.9267 27.7542 25.9296C27.7387 25.9345 27.7213 25.9382 27.7046 25.9429C27.6931 25.948 27.6835 25.9496 27.6712 25.9521C27.6539 25.9571 27.6346 25.9619 27.6171 25.9661L27.5515 25.9805C27.7086 26.0385 27.8749 26.0677 28.0422 26.0667C31.2947 26.0667 34.5741 20.2313 40.0003 10.5273H37.8698L37.8706 10.5291Z" fill="url(#paint6_linear_6060_109640)"/>
<path d="M10.132 11.1721C10.134 11.1721 10.1367 11.1671 10.1378 11.1671C10.1405 11.1671 10.1444 11.1671 10.1457 11.162H10.1497C10.1677 11.1557 10.1844 11.1487 10.2024 11.1419C10.2072 11.1419 10.2095 11.1419 10.2128 11.1368C10.2174 11.1368 10.2218 11.1317 10.2263 11.131C10.2455 11.1249 10.2649 11.1176 10.283 11.111H10.286C10.3291 11.0981 10.369 11.082 10.4107 11.0671C10.4167 11.0671 10.4223 11.062 10.4294 11.062C10.4467 11.0564 10.4648 11.0502 10.4829 11.0461C10.4912 11.041 10.4996 11.041 10.5073 11.0383C10.5258 11.0328 10.5439 11.0265 10.5612 11.0224C10.5691 11.0224 10.576 11.0172 10.5818 11.0167C10.6416 11.0002 10.7009 10.9847 10.7607 10.9704C10.769 10.9704 10.7761 10.9652 10.7851 10.9647C10.8024 10.9597 10.8186 10.9569 10.8373 10.9543C10.845 10.9493 10.854 10.9493 10.8629 10.9466C10.8802 10.9416 10.8971 10.941 10.9158 10.9369H10.9279C10.9641 10.9295 11.0007 10.9235 11.0367 10.9167H11.0586C11.0759 10.9117 11.0913 10.911 11.1088 10.9079C11.1182 10.9079 11.128 10.9028 11.1371 10.9028C11.1531 10.9028 11.1692 10.8976 11.1852 10.8956C11.1937 10.8956 11.2019 10.8956 11.2116 10.8904C11.2496 10.8854 11.2887 10.8833 11.3287 10.8802C11.2137 10.8686 11.0982 10.8626 10.9826 10.8621C7.31986 10.8621 2.27322 17.666 0 26.4774H0.438066C1.16555 25.1785 1.8191 23.9497 2.41683 22.7963C4.00882 16.5551 7.25158 12.2989 10.1321 11.1712" fill="url(#paint7_linear_6060_109640)"/>
<path d="M12.1938 13.6792C12.5902 13.2995 13.0068 12.9415 13.4417 12.6068C13.3533 12.4098 13.2541 12.2178 13.1446 12.0317C12.8095 12.4388 12.5032 12.9759 12.1938 13.6792Z" fill="#0D82CA"/>
<path d="M12.4949 11.223C12.734 11.4239 12.9484 11.7001 13.1445 12.0313C13.2063 11.9553 13.2688 11.885 13.3336 11.8194C13.0615 11.565 12.7677 11.3564 12.4485 11.1992C12.4614 11.2063 12.4743 11.2121 12.4877 11.2178C12.4877 11.2178 12.4927 11.2228 12.4949 11.2228" fill="#0D82CA"/>
<path d="M2.4165 22.7977C5.7565 16.3542 7.33889 12.2763 10.132 11.1724C7.25207 12.3008 4.00865 16.5571 2.41666 22.7977" fill="url(#paint8_linear_6060_109640)"/>
<path d="M13.3336 11.8198C13.2686 11.8861 13.2069 11.9557 13.1445 12.0318C13.254 12.2179 13.3534 12.4098 13.4422 12.6067C13.5637 12.5142 13.6866 12.4236 13.8109 12.3351C13.6641 12.1524 13.5045 11.9802 13.3336 11.8198Z" fill="#127BCA"/>
<path d="M3.93251 26.4494C3.9119 26.4545 3.89129 26.4545 3.87195 26.4566H3.86046C3.843 26.4566 3.82492 26.4619 3.80887 26.4619H3.80054C3.7587 26.467 3.71748 26.467 3.67767 26.47H3.66479C7.0452 26.3753 8.59031 24.6809 9.35728 22.2233C9.94006 20.3603 10.4186 18.7908 10.838 17.4739C9.42208 19.4691 7.99984 21.8473 6.56987 24.5118C5.88028 25.7958 4.83176 26.3321 3.93235 26.447" fill="url(#paint9_linear_6060_109640)"/>
<path d="M3.93302 26.4495C4.83227 26.3348 5.88078 25.7991 6.57037 24.5141C8.00033 21.8506 9.42339 19.4716 10.8378 17.4764C11.3524 15.8591 11.7771 14.6214 12.1939 13.6792C9.37446 16.366 6.54395 20.8336 3.93286 26.4482" fill="url(#paint10_linear_6060_109640)"/>
<path d="M2.41626 22.7974C1.81854 23.9508 1.16498 25.1796 0.4375 26.4785H1.71174C1.87266 25.2386 2.10794 24.0095 2.41626 22.798" fill="#05A1E6"/>
<path d="M11.2116 10.8931C11.2012 10.8931 11.1935 10.8981 11.1845 10.8981C11.1691 10.9033 11.1531 10.9033 11.1369 10.9049C11.1274 10.9049 11.1183 10.9049 11.1086 10.9101C11.0913 10.9151 11.0752 10.9156 11.0584 10.9189C11.0507 10.9189 11.043 10.9189 11.0365 10.924C10.9999 10.9301 10.9639 10.9369 10.928 10.943H10.9157C10.897 10.9482 10.8802 10.9509 10.8629 10.9534C10.8539 10.9585 10.845 10.9585 10.8365 10.9605C10.8191 10.9657 10.8018 10.9678 10.785 10.9709C10.7761 10.9759 10.769 10.9759 10.7606 10.9764C10.7009 10.9909 10.6416 11.0063 10.5818 11.0229C10.5755 11.0229 10.5689 11.0279 10.5612 11.029C10.5433 11.034 10.5258 11.0392 10.5071 11.0449C10.4994 11.0501 10.4904 11.0501 10.4827 11.0522C10.4648 11.0571 10.4469 11.0624 10.4292 11.0681C10.4223 11.0681 10.4165 11.0731 10.41 11.0731C10.3688 11.0885 10.3282 11.1041 10.2858 11.1169C10.2678 11.1226 10.2485 11.1298 10.2291 11.1366C10.2214 11.1416 10.2145 11.1429 10.2055 11.1463C10.1874 11.152 10.1694 11.1592 10.1527 11.1658C10.1464 11.171 10.1398 11.1715 10.1354 11.1742C7.34231 12.2781 5.75977 16.3559 2.41993 22.7993C2.11134 24.0108 1.87612 25.2401 1.71558 26.4801H1.89441C2.39807 26.4801 2.54026 26.4748 3.11974 26.4748H3.68145C3.72124 26.4697 3.76246 26.4697 3.80414 26.4665H3.81199C3.82929 26.4665 3.8466 26.4614 3.86343 26.4614H3.87569C3.89425 26.4614 3.9155 26.4564 3.93609 26.4542C6.54719 20.8396 9.37754 16.372 12.1972 13.6851C12.507 12.982 12.8126 12.4449 13.1473 12.0384C12.9516 11.7074 12.7373 11.4306 12.4981 11.2296C12.4981 11.2296 12.4916 11.2296 12.4912 11.2244C12.4774 11.2189 12.4648 11.2122 12.4513 11.2055C12.4377 11.1981 12.426 11.1925 12.412 11.1854C12.3987 11.1798 12.3859 11.1736 12.3733 11.1668C12.3566 11.1616 12.3432 11.1544 12.3284 11.1477C12.3161 11.1425 12.3052 11.1374 12.293 11.1323C12.2681 11.1226 12.2434 11.1123 12.219 11.1013C12.2081 11.0962 12.1978 11.0934 12.1876 11.0895C12.1689 11.0826 12.1504 11.0753 12.1321 11.0674C12.1232 11.0622 12.1129 11.0611 12.1025 11.0575C12.0762 11.0487 12.0505 11.0394 12.026 11.0312H12.0196C11.99 11.0214 11.9611 11.0142 11.9309 11.006C11.9238 11.0008 11.918 11.0008 11.9109 10.9997C11.8845 10.9926 11.8613 10.9855 11.8364 10.9788C11.83 10.9788 11.8241 10.9736 11.819 10.9736C11.7576 10.9578 11.6955 10.9442 11.633 10.933C11.6267 10.933 11.6202 10.9278 11.6138 10.9278C11.5872 10.9225 11.5603 10.9181 11.5334 10.9148C11.5268 10.9098 11.523 10.9098 11.5173 10.9098C11.4857 10.9049 11.4539 10.9008 11.4221 10.8974H11.4054C11.3796 10.8923 11.3558 10.8918 11.3321 10.8892C11.2915 10.8942 11.253 10.8964 11.2149 10.9" fill="url(#paint11_linear_6060_109640)"/>
<path d="M30.2193 14.7139C29.5765 16.7748 29.0561 18.4748 28.6033 19.8737C30.3665 17.4446 32.1034 14.3886 33.7574 10.8621C31.8281 11.4687 30.7988 12.8573 30.2193 14.7139Z" fill="url(#paint12_linear_6060_109640)"/>
<path d="M28.6587 25.5694C28.5688 25.6154 28.4787 25.6591 28.3899 25.6983C31.8198 24.1668 35.9112 18.0926 37.8699 10.5298H37.4729C32.9726 18.578 31.5253 23.9658 28.6587 25.5694Z" fill="url(#paint13_linear_6060_109640)"/>
<path d="M26.4196 24.8924C27.1659 23.9804 27.7739 22.4301 28.6036 19.8752C27.6463 21.1917 26.6828 22.3232 25.7183 23.2461C25.7183 23.2512 25.7183 23.2512 25.7134 23.2544C25.9236 23.8856 26.1547 24.4424 26.4177 24.892" fill="#079AE1"/>
<path d="M26.4193 24.8914C26.1652 25.2016 25.8963 25.4382 25.5971 25.6133C25.5315 25.6514 25.4652 25.6874 25.3977 25.7203C25.7223 25.8963 26.0775 26.0083 26.4443 26.0506C26.5009 26.0562 26.5569 26.0614 26.6153 26.0654H26.6257C26.6521 26.0654 26.6796 26.0654 26.7081 26.0706H26.9873C26.9974 26.0706 27.0081 26.0706 27.0185 26.0654C27.0385 26.0654 27.0596 26.0654 27.0801 26.0603H27.1107C27.1318 26.0603 27.1548 26.0554 27.1775 26.053H27.1825C27.1894 26.053 27.1966 26.048 27.2033 26.048C27.2268 26.0429 27.2516 26.0408 27.2745 26.0371H27.2958C27.322 26.0322 27.3492 26.0288 27.3761 26.0238H27.3891C27.443 26.0134 27.4958 26.0034 27.5492 25.9898C27.1065 25.8275 26.7361 25.445 26.4171 24.9" fill="#1969BC"/>
<path d="M20.0962 26.0707C20.4172 26.0707 20.7413 26.0394 21.0669 25.9768C21.368 25.9221 21.6698 25.8381 21.972 25.7327C22.2242 25.8567 22.4911 25.9477 22.7663 26.0039C22.9895 26.049 23.2167 26.0714 23.4445 26.0707H20.0962Z" fill="#1E5CB3"/>
<path d="M23.4442 26.0743C24.2369 26.0743 24.8645 25.9802 25.3978 25.7239C25.7225 25.8999 26.0778 26.012 26.4445 26.0544C26.501 26.0599 26.557 26.0652 26.6156 26.0692H26.626C26.6522 26.0692 26.6799 26.0692 26.7082 26.0744H26.8045H23.4421H23.4442V26.0743Z" fill="#1E5CB3"/>
<path d="M26.8062 26.07H26.9895C27.0004 26.07 27.0106 26.07 27.021 26.065C27.041 26.065 27.062 26.065 27.0836 26.0597H27.1138C27.135 26.0597 27.158 26.0548 27.1801 26.0527H27.1857C27.1924 26.0527 27.1991 26.0477 27.2058 26.0477C27.2295 26.0425 27.2542 26.0404 27.2772 26.0365C27.285 26.0365 27.2911 26.0365 27.2993 26.0316C27.3255 26.0266 27.3527 26.0239 27.3799 26.0189H27.3927C27.4468 26.0085 27.4994 25.9981 27.5527 25.9849C27.7098 26.0428 27.8759 26.0721 28.0434 26.0711L26.8071 26.0762L26.8062 26.07Z" fill="#1D60B5"/>
<path d="M25.7156 23.2558V23.2505C25.3773 23.5758 25.0245 23.8855 24.6581 24.1785C24.4778 24.3222 24.2936 24.4607 24.1055 24.5938C24.2605 24.7794 24.4181 24.9532 24.5842 25.1119C24.8362 25.3564 25.1058 25.5626 25.3997 25.7215C25.4667 25.6886 25.5333 25.6527 25.5986 25.6146C25.8981 25.4394 26.1671 25.2031 26.4212 24.8927C26.1581 24.4431 25.9274 23.8863 25.7168 23.2551" fill="#175FAB"/>
<path d="M36.2164 10.5298H34.2188C34.1108 10.535 34.006 10.5386 33.9025 10.5452C33.8536 10.6503 33.8033 10.7553 33.755 10.861C32.1012 14.3875 30.3644 17.4434 28.6012 19.8726C27.772 22.4273 27.1635 23.9775 26.4172 24.8895C26.7363 25.4343 27.1075 25.8175 27.5488 25.9798C27.5616 25.9746 27.572 25.9746 27.5835 25.9719H27.5907C27.5985 25.9719 27.6067 25.9668 27.615 25.9668C27.6329 25.9617 27.6524 25.9585 27.6705 25.953C27.6819 25.9479 27.6915 25.9473 27.7032 25.9436C27.72 25.9385 27.7372 25.935 27.7528 25.9308C27.7632 25.9257 27.7732 25.9241 27.7835 25.922C27.8092 25.9137 27.8324 25.9076 27.8569 25.8998C27.8684 25.8948 27.8808 25.8905 27.8937 25.8873C27.9078 25.8823 27.922 25.8788 27.9348 25.8726C27.9497 25.8673 27.9644 25.8647 27.9772 25.8593C27.9889 25.854 28.0009 25.8508 28.012 25.8463C28.0409 25.8359 28.0692 25.8273 28.098 25.8159C28.106 25.8159 28.1137 25.8087 28.122 25.8071C28.1393 25.7998 28.1574 25.7942 28.1747 25.7865C28.1809 25.7812 28.1889 25.7809 28.1972 25.778C28.2577 25.7529 28.3201 25.7271 28.3825 25.6988H28.3889C28.4796 25.6585 28.5691 25.6156 28.6572 25.57C31.5243 23.9665 32.972 18.5786 37.4721 10.5304H36.2152L36.2168 10.5298H36.2164Z" fill="url(#paint14_linear_6060_109640)"/>
<path d="M11.3289 10.8844C11.3359 10.8844 11.3424 10.8844 11.3493 10.8894C11.3668 10.8894 11.3842 10.8894 11.4015 10.8951H11.4188C11.4504 10.9001 11.4819 10.903 11.5142 10.9075C11.52 10.9075 11.5251 10.9075 11.5302 10.9126C11.5566 10.9176 11.5837 10.922 11.6105 10.926C11.6163 10.926 11.6241 10.9312 11.6305 10.9312C11.6923 10.9434 11.7554 10.9563 11.8158 10.9723C11.8215 10.9723 11.8274 10.9774 11.8325 10.9774C11.8583 10.9836 11.8814 10.9913 11.9072 10.9985C11.9151 10.9985 11.9206 11.0036 11.9277 11.0048C11.9581 11.0126 11.9863 11.0203 12.0158 11.03C12.0171 11.03 12.0189 11.03 12.0224 11.0351C12.0475 11.0428 12.0731 11.0526 12.0994 11.0614C12.1099 11.0664 12.1195 11.0686 12.1291 11.0711C12.1472 11.079 12.1672 11.0866 12.1846 11.0938C12.1947 11.0938 12.205 11.1011 12.216 11.1048C12.2398 11.1156 12.2648 11.1253 12.2893 11.1356C12.3022 11.1408 12.313 11.1466 12.3255 11.1511C12.3397 11.1584 12.3543 11.165 12.3697 11.17C12.3825 11.1763 12.3967 11.1829 12.409 11.1886C12.4225 11.196 12.4352 11.2015 12.4483 11.2088C12.7673 11.3659 13.0613 11.5752 13.3334 11.8291C13.4309 11.7264 13.5358 11.631 13.6472 11.5437C13.0521 11.1211 12.3782 10.8801 11.6003 10.8801C11.5102 10.8801 11.4202 10.8853 11.3289 10.8921" fill="#7DCBEC"/>
<path d="M13.3328 11.8219C13.5037 11.9822 13.6633 12.1544 13.8101 12.3371C13.9532 12.2366 14.0986 12.1395 14.2463 12.0458C14.0611 11.8592 13.8603 11.6887 13.6461 11.5364C13.5346 11.6234 13.4299 11.7188 13.3328 11.8217" fill="#5EC5ED"/>
<path d="M11.3281 10.8845C11.4194 10.8768 11.5095 10.8735 11.5997 10.8735C12.3773 10.8735 13.0514 11.1144 13.6465 11.5365C14.2744 11.0404 15.0334 10.8672 16.0877 10.8672H10.9819C11.0999 10.8672 11.2149 10.8743 11.3281 10.8845Z" fill="url(#paint15_linear_6060_109640)"/>
<path d="M16.0881 10.8645C15.0338 10.8645 14.2749 11.0377 13.647 11.5338C13.8608 11.6862 14.0615 11.8566 14.2465 12.043C15.1206 11.4867 15.9865 11.1182 16.8404 10.9573C17.1603 10.8963 17.4852 10.8653 17.8108 10.8645H16.0881Z" fill="url(#paint16_linear_6060_109640)"/>
<path d="M28.6032 19.8759C29.0567 18.4759 29.5759 16.7763 30.2197 14.7148C30.8002 12.8574 31.8272 11.4689 33.7565 10.8629C33.8074 10.7592 33.8556 10.6522 33.9052 10.5474C30.7602 10.736 29.2903 12.3377 28.5506 14.7096C27.257 18.8505 26.4733 21.5348 25.7188 23.2454C26.6824 22.3231 27.6461 21.191 28.6032 19.8759Z" fill="url(#paint17_linear_6060_109640)"/>
<path d="M33.2172 24.9696H32.8609V26.0787H32.7156V24.9696H32.3577V24.8376H33.2172V24.9696ZM34.6765 26.0784H34.5317V25.2451C34.5317 25.1793 34.5369 25.0988 34.5436 25.0041C34.5287 25.0608 34.5164 25.1001 34.505 25.1254L34.0831 26.0784H34.0122L33.5892 25.1324C33.5765 25.1062 33.5644 25.0635 33.5509 25.0043H33.546C33.5509 25.0542 33.5527 25.135 33.5527 25.247V26.0785H33.4137V24.8374H33.6053L33.9855 25.7035C34.0143 25.7686 34.0324 25.8188 34.0415 25.8523H34.0471C34.0722 25.784 34.0929 25.7331 34.1068 25.6996L34.4948 24.8374H34.6775V26.0784H34.6765Z" fill="black"/>
</g>
<defs>
<linearGradient id="paint0_linear_6060_109640" x1="17.4788" y1="10.7645" x2="17.4788" y2="29.8668" gradientUnits="userSpaceOnUse">
<stop stop-color="#0994DC"/>
<stop offset="0.35001" stop-color="#66CEF5"/>
<stop offset="0.84616" stop-color="#127BCA"/>
<stop offset="1" stop-color="#127BCA"/>
</linearGradient>
<linearGradient id="paint1_linear_6060_109640" x1="18.207" y1="10.2809" x2="18.207" y2="29.8697" gradientUnits="userSpaceOnUse">
<stop stop-color="#0E76BC"/>
<stop offset="0.36" stop-color="#36AEE8"/>
<stop offset="0.84616" stop-color="#00ADEF"/>
<stop offset="1" stop-color="#00ADEF"/>
</linearGradient>
<linearGradient id="paint2_linear_6060_109640" x1="22.1394" y1="25.6312" x2="22.1394" y2="10.0442" gradientUnits="userSpaceOnUse">
<stop stop-color="#1C63B7"/>
<stop offset="0.5" stop-color="#33BDF2"/>
<stop offset="1" stop-color="#33BDF2" stop-opacity="0.42"/>
</linearGradient>
<linearGradient id="paint3_linear_6060_109640" x1="21.1167" y1="8.29455" x2="21.1167" y2="28.6331" gradientUnits="userSpaceOnUse">
<stop stop-color="#166AB8"/>
<stop offset="0.39999" stop-color="#36AEE8"/>
<stop offset="0.84616" stop-color="#0798DD"/>
<stop offset="1" stop-color="#0798DD"/>
</linearGradient>
<linearGradient id="paint4_linear_6060_109640" x1="19.5149" y1="8.40225" x2="19.5149" y2="30.0297" gradientUnits="userSpaceOnUse">
<stop stop-color="#124379"/>
<stop offset="0.39" stop-color="#1487CB"/>
<stop offset="0.78023" stop-color="#165197"/>
<stop offset="1" stop-color="#165197"/>
</linearGradient>
<linearGradient id="paint5_linear_6060_109640" x1="10.8384" y1="15.0402" x2="13.8928" y2="15.0402" gradientUnits="userSpaceOnUse">
<stop stop-color="#33BDF2" stop-opacity="0.698"/>
<stop offset="1" stop-color="#1DACD8"/>
</linearGradient>
<linearGradient id="paint6_linear_6060_109640" x1="33.7771" y1="25.2411" x2="33.7771" y2="10.0573" gradientUnits="userSpaceOnUse">
<stop stop-color="#136AB4"/>
<stop offset="0.6" stop-color="#59CAF5" stop-opacity="0.549"/>
<stop offset="1" stop-color="#59CAF5" stop-opacity="0.235"/>
</linearGradient>
<linearGradient id="paint7_linear_6060_109640" x1="-0.000113287" y1="18.6697" x2="11.3285" y2="18.6697" gradientUnits="userSpaceOnUse">
<stop stop-color="#05A1E6" stop-opacity="0.247"/>
<stop offset="1" stop-color="#05A1E6"/>
</linearGradient>
<linearGradient id="paint8_linear_6060_109640" x1="6.27409" y1="25.6242" x2="6.27409" y2="10.0771" gradientUnits="userSpaceOnUse">
<stop stop-color="#318ED5"/>
<stop offset="1" stop-color="#38A7E4"/>
</linearGradient>
<linearGradient id="paint9_linear_6060_109640" x1="7.25136" y1="25.6784" x2="7.25136" y2="10.5661" gradientUnits="userSpaceOnUse">
<stop stop-color="#05A1E6"/>
<stop offset="1" stop-color="#05A1E6" stop-opacity="0.549"/>
</linearGradient>
<linearGradient id="paint10_linear_6060_109640" x1="8.06341" y1="26.4508" x2="8.06341" y2="13.6805" gradientUnits="userSpaceOnUse">
<stop stop-color="#1959A6"/>
<stop offset="0.5" stop-color="#05A1E6"/>
<stop offset="0.91759" stop-color="#7EC5EA"/>
<stop offset="1" stop-color="#7EC5EA"/>
</linearGradient>
<linearGradient id="paint11_linear_6060_109640" x1="8.55218" y1="25.633" x2="4.21938" y2="12.4069" gradientUnits="userSpaceOnUse">
<stop stop-color="#165096"/>
<stop offset="1" stop-color="#0D82CA"/>
</linearGradient>
<linearGradient id="paint12_linear_6060_109640" x1="31.1801" y1="17.8009" x2="31.1801" y2="10.5648" gradientUnits="userSpaceOnUse">
<stop stop-color="#05A1E6"/>
<stop offset="0.87363" stop-color="#0495D6"/>
<stop offset="1" stop-color="#0495D6"/>
</linearGradient>
<linearGradient id="paint13_linear_6060_109640" x1="34.5768" y1="9.89863" x2="27.8278" y2="24.8666" gradientUnits="userSpaceOnUse">
<stop stop-color="#38A7E4" stop-opacity="0.329"/>
<stop offset="0.96153" stop-color="#0E88D3"/>
<stop offset="1" stop-color="#0E88D3"/>
</linearGradient>
<linearGradient id="paint14_linear_6060_109640" x1="31.9465" y1="10.4841" x2="31.9465" y2="26.2706" gradientUnits="userSpaceOnUse">
<stop stop-color="#168CD4"/>
<stop offset="0.5" stop-color="#1C87CC"/>
<stop offset="1" stop-color="#154B8D"/>
</linearGradient>
<linearGradient id="paint15_linear_6060_109640" x1="11.8333" y1="10.1607" x2="11.9017" y2="11.8167" gradientUnits="userSpaceOnUse">
<stop stop-color="#97D6EE"/>
<stop offset="0.70329" stop-color="#55C1EA"/>
<stop offset="1" stop-color="#55C1EA"/>
</linearGradient>
<linearGradient id="paint16_linear_6060_109640" x1="13.9338" y1="11.9688" x2="14.2433" y2="10.2151" gradientUnits="userSpaceOnUse">
<stop stop-color="#7ACCEC"/>
<stop offset="1" stop-color="#3FB7ED"/>
</linearGradient>
<linearGradient id="paint17_linear_6060_109640" x1="29.8117" y1="11.3553" x2="29.8117" y2="26.7959" gradientUnits="userSpaceOnUse">
<stop stop-color="#1DA7E7"/>
<stop offset="1" stop-color="#37ABE7" stop-opacity="0"/>
</linearGradient>
</defs>
</svg>
