<svg width="40" height="37" viewBox="0 0 40 37" fill="none" xmlns="http://www.w3.org/2000/svg">
<path d="M11.9532 32.6597C10.4294 31.4612 8.80393 30.3121 7.69318 28.694C5.35597 25.8405 3.55643 22.5368 2.32619 19.065C1.58259 16.8075 1.32792 14.3872 0.369326 12.2169C-0.63346 10.6406 0.541166 8.91745 2.26779 8.41639C3.03652 8.26885 4.38819 7.54377 2.75659 8.06202C1.29381 9.13524 1.15224 7.08784 2.65221 6.95819C3.67587 6.82213 4.0527 5.98413 3.70264 5.22974C2.6038 4.51317 6.36717 3.72565 4.47359 2.65642C2.501 0.528214 7.23283 0.118528 6.06542 2.53552C5.78597 4.39409 9.37182 2.19488 8.53982 4.34113C9.38546 5.37183 11.7065 4.57572 11.6489 6.0217C12.8808 6.10637 13.3036 7.14287 14.46 7.22244C15.6585 7.76368 17.8312 8.19018 18.239 9.54076C17.05 10.4821 14.2966 7.59626 14.1643 10.2021C14.5235 14.0514 14.432 18.0168 15.8403 21.6826C16.5065 23.9022 18.1214 25.6495 19.5799 27.3782C20.9753 29.0713 22.8655 30.2632 24.792 31.2668C26.482 32.0638 28.304 32.5925 30.1459 32.9241C30.8929 32.3527 32.2118 30.2284 33.3772 31.1242C33.4325 32.1307 31.0641 33.2282 33.2658 33.117C34.5585 32.727 35.4552 34.1168 36.5198 32.8632C37.5006 34.025 40.5964 32.1209 39.8985 34.4956C38.9549 35.1044 37.5786 34.7365 36.6334 35.5741C35.075 34.7957 33.8343 36.2705 32.109 36.084C30.193 36.4272 28.2438 36.5657 26.3013 36.5687C23.1146 36.3169 19.8603 36.2108 16.8287 35.1013C15.1208 34.605 13.4542 33.6326 11.9532 32.6597ZM14.6446 33.8258C16.3122 34.547 17.9429 35.3071 19.7705 35.5363C22.67 35.9396 25.6643 36.5599 28.5743 35.9941C27.2573 35.3994 25.8957 36.2258 24.5837 35.5689C23.01 35.9075 21.3214 35.4826 19.7216 35.2734C17.9024 34.4631 15.9392 33.9059 14.2355 32.854C12.1068 32.0765 15.3365 33.8512 15.9114 33.9949C17.2421 34.7502 14.448 33.6077 14.0541 33.2937C12.9395 32.6685 12.7975 32.7991 13.9437 33.4341C14.1746 33.5692 14.4027 33.7107 14.6446 33.8258ZM11.4714 31.5833C13.0874 32.1819 11.4643 30.4469 10.7237 30.5477C10.3957 29.9785 9.47028 29.619 10.123 29.3132C8.94884 29.7208 8.89301 27.763 8.34107 28.0428C7.09886 27.6505 7.8576 26.261 6.37791 25.4077C6.24284 24.5086 4.90777 23.7287 4.48194 22.3725C4.29387 21.6781 2.97359 19.6841 3.78464 21.5398C4.4752 23.3263 5.6902 24.8562 6.70131 26.3843C7.48643 27.8393 8.41349 29.3599 9.84335 30.2675C10.3253 30.7299 10.7907 31.4384 11.4714 31.5833ZM6.81606 26.4721C6.87246 26.2281 7.1116 27.0003 6.81606 26.4721V26.4721ZM13.4067 32.3008C13.7645 32.1406 12.8921 32.099 13.4067 32.3008V32.3008ZM14.2839 32.6208C14.1931 32.179 13.8835 32.8679 14.2839 32.6208V32.6208ZM15.3819 33.0789C15.9047 32.5811 14.5763 32.765 15.3819 33.0789V33.0789ZM17.2639 34.1278C17.5816 33.6582 16.2472 33.9506 17.2639 34.1278V34.1278ZM13.65 31.6085C14.462 31.0833 12.6013 31.6013 13.65 31.6085V31.6085ZM14.4738 32.0193C14.4507 31.7416 14.1802 32.1436 14.4738 32.0193V32.0193ZM18.5907 34.5889C19.2525 35.0065 22.4555 35.5043 20.4498 34.7601C20.1142 34.8309 16.7309 33.8032 18.5907 34.5889ZM12.0549 29.4986C11.9906 29.2201 11.0276 29.1912 12.0549 29.4986V29.4986ZM13.9715 30.6156C14.4703 30.2678 12.9362 30.3473 13.9715 30.6156V30.6156ZM15.5836 31.6041C16.2994 31.3342 14.4225 31.333 15.5836 31.6041V31.6041ZM11.275 28.6493C12.0516 29.2448 14.407 28.7256 12.4644 28.2937C11.5802 27.8224 9.58741 27.4998 10.9457 28.5779L11.275 28.6493L11.275 28.6493ZM16.6755 31.9454C16.999 31.3943 15.3189 31.6307 16.6755 31.9454V31.9454ZM15.0345 30.6412C16.9335 31.1784 13.4376 29.4403 14.5659 30.4435L14.816 30.5567L15.0345 30.6412L15.0345 30.6412ZM18.3246 32.5428C20.1231 32.56 16.7002 32.2949 18.3246 32.5428V32.5428ZM10.5831 27.6087C10.5128 27.2737 10.1392 27.6368 10.5831 27.6087V27.6087ZM21.3668 34.2493C21.4148 33.6443 20.7799 34.6995 21.3668 34.2493V34.2493ZM13.6522 29.4882C13.5434 29.1696 13.0902 29.4752 13.6522 29.4882V29.4882ZM10.7536 27.3986C11.7861 27.3366 9.34007 26.9436 10.7536 27.3986V27.3986ZM7.31989 25.179C7.19138 24.6841 6.19638 24.2893 7.31989 25.179V25.179ZM16.3342 30.8998C16.1451 30.6841 16.2453 30.947 16.3342 30.8998V30.8998ZM21.9451 34.343C21.9271 34.0134 21.6395 34.4677 21.9451 34.343V34.343ZM15.8377 30.387C15.9387 29.9624 14.9573 30.2585 15.8377 30.387V30.387ZM11.6577 27.7379C12.4258 27.6557 10.4272 27.2187 11.6577 27.7379V27.7379ZM18.7285 32.1316C19.9255 31.6574 17.5619 31.9001 18.7285 32.1316V32.1316ZM15.0506 29.6349C16.4301 29.8128 13.4091 28.6966 14.7479 29.5351L15.0506 29.6349L15.0506 29.6349ZM19.8451 32.583C21.1331 31.813 20.7085 34.386 22.0302 32.8003C23.334 31.8484 20.9043 33.9773 22.5111 32.9701C23.6732 32.1928 25.3897 33.3385 26.474 33.7123C27.2538 33.674 28.0119 34.3866 28.8113 33.9531C30.3502 33.5386 25.8021 33.3383 26.9943 32.6029C25.5862 33.0128 24.5459 32.1144 23.853 31.2125C22.2735 30.8477 20.4473 30.0402 19.6591 28.6425C19.3377 28.1177 20.1234 28.7164 19.3817 27.8586C18.4299 27.012 17.9547 26.0511 17.3158 25.0221C16.5525 24.615 16.4636 23.4165 16.3864 24.982C16.3925 23.994 15.4649 23.329 15.2385 23.6054C15.2345 22.6539 16.2312 23.1308 15.5335 22.4268C15.3833 21.4406 14.8888 20.413 14.7402 19.2995C14.5092 18.7628 14.7076 17.6133 13.952 18.8283C13.6767 20.1124 13.8606 17.2503 14.2887 18.1941C14.8507 17.231 14.087 17.3443 14.0557 17.478C14.4218 16.6654 14.2874 15.5128 13.9602 15.9525C14.1552 15.0913 14.2683 12.7829 13.6683 13.192C14.032 12.2914 14.3581 9.07101 12.779 10.2988C12.1391 10.3078 11.0309 10.5311 10.507 10.7917C12.1495 11.6971 10.3418 11.1186 9.67318 10.9747C9.58607 11.8125 8.92382 11.4502 8.09646 11.4584C9.41793 11.6219 7.45296 12.8099 6.69488 12.3484C5.71033 12.819 7.54456 13.9936 6.71463 14.3567C6.81663 14.9042 5.20631 14.159 5.33278 15.4234C4.37698 15.0213 5.20117 16.9233 5.67935 16.28C7.30499 16.72 6.82376 17.7231 6.86516 18.6759C6.60029 19.2312 5.55746 17.3709 6.63291 17.457C5.78446 16.0788 5.69437 16.9588 4.98934 17.5991C4.82532 17.6456 6.78772 18.5102 5.55621 18.9376C6.63968 19.1048 6.67051 20.053 6.89108 20.6529C7.5423 21.3312 7.40902 19.904 8.18823 20.7191C7.69513 19.9929 5.57641 18.673 7.28227 19.0963C7.27315 18.3654 6.97375 17.776 7.49638 17.7903C8.01393 16.8531 6.95434 20.1013 8.12093 18.9101C8.44386 18.7691 8.52385 17.9716 9.10431 18.9854C9.9474 19.8148 9.40884 20.4158 8.21957 19.6564C8.43234 20.3782 9.81051 20.6361 9.55152 21.7649C9.82607 22.7576 10.2102 22.392 10.545 22.3346C10.8077 23.2992 10.9568 22.5899 10.9693 22.1309C12.1719 22.3883 11.8902 23.0992 12.2665 23.5959C13.0953 23.9699 11.0804 21.0604 12.5031 22.721C14 24.0725 13.0645 24.6366 11.7212 24.4201C12.5714 24.3514 12.8456 25.5695 13.909 25.5267C14.8788 25.9881 15.5354 27.76 13.8638 27.0224C13.284 26.4996 11.2323 25.8548 12.9081 26.8491C14.4558 27.5658 15.6851 27.9946 17.1778 28.8943C18.2461 29.6569 18.7077 30.5304 19.1126 30.7033C18.2147 31.1322 16.4068 30.3609 17.7493 30.1245C16.9119 29.972 15.9701 29.5485 16.7722 30.5918C17.4542 31.1612 19.1884 31.1009 19.4993 31.1654C19.2358 31.7461 18.7835 31.7922 19.5101 31.8373C18.6995 32.2693 19.77 32.3361 19.8451 32.583H19.8451ZM18.1875 27.9021C17.6944 27.3863 17.5669 26.4203 18.1 27.2609C18.3733 27.3707 18.9757 28.8395 18.1875 27.9021H18.1875ZM23.5856 31.331C23.8932 31.3111 23.5946 31.5647 23.5856 31.331V31.331ZM17.4088 26.6375C17.3899 25.8577 17.5872 27.2389 17.4088 26.6375V26.6375ZM16.8723 25.9156C16.252 24.7171 17.6544 26.2551 16.8723 25.9156V25.9156ZM10.3708 21.4283C10.7352 21.3311 10.5501 22.0516 10.3708 21.4283V21.4283ZM15.5452 24.233C15.769 23.3925 15.8082 24.9382 15.5452 24.233V24.233ZM11.8897 21.6911C11.632 21.2273 12.4287 22.1261 11.8897 21.6911V21.6911ZM15.0269 22.6968C14.4392 21.3802 15.443 21.9776 15.1569 22.9126L15.0269 22.6968ZM9.6167 19.0888C9.35396 18.6568 8.91934 17.3894 9.05926 17.0024C9.18584 17.6326 10.3993 19.7142 9.65448 17.8648C8.83142 16.3144 10.6383 18.368 10.8242 18.7547C10.9108 19.1394 10.3164 18.6496 10.7191 19.5516C9.98469 18.5246 10.2856 20.1188 9.6167 19.0888ZM7.94464 17.9366C8.01347 16.9322 8.32742 18.6253 7.94464 17.9366V17.9366ZM8.69675 18.1955C9.05565 17.4374 9.3053 19.2523 8.69675 18.1955V18.1955ZM6.88754 16.7959C6.26503 16.1774 5.81455 15.6071 6.91667 16.412C7.34134 16.4286 5.97316 15.1153 7.01894 15.995C8.11861 16.1955 7.56196 17.798 6.88754 16.7959ZM7.83789 16.7711C8.1994 16.4129 8.02981 17.1237 7.83789 16.7711V16.7711ZM8.42266 16.9586C7.8746 15.9313 9.08783 17.3892 8.42266 16.9586V16.9586ZM7.26018 15.8476C5.4505 14.2371 9.53416 16.6898 7.55583 16.1462L7.26017 15.8477L7.26018 15.8476ZM12.4452 18.8602C11.6621 18.3907 12.2377 15.5546 12.5047 17.4943C13.266 17.248 12.4627 18.496 13.0305 18.4845C12.941 19.2719 12.687 19.555 12.4452 18.8602ZM14.363 19.9937C14.4398 19.139 14.5247 20.5781 14.363 19.9937V19.9937ZM14.0299 19.6646C14.1161 19.2994 14.0388 20.0946 14.0299 19.6646V19.6646ZM7.61518 15.3184C6.45258 13.7144 10.994 16.941 8.35981 15.7253C8.08456 15.6533 7.75336 15.6276 7.61518 15.3184ZM11.3083 17.2765C11.1982 15.9259 11.554 17.5004 11.3082 17.2765L11.3083 17.2765ZM14.1122 19.0752C14.3291 18.3058 14.1283 19.5841 14.1122 19.0752V19.0752ZM7.79328 14.7062C8.48426 14.5585 10.6568 15.9198 8.66171 15.0951C8.44003 14.8497 7.96746 14.9612 7.79328 14.7062ZM13.7269 17.6636C13.8008 16.2825 14.1394 16.8387 13.7295 17.8613L13.7269 17.6636L13.7269 17.6636H13.7269ZM8.30763 14.2257C8.58917 13.8127 7.56027 12.3585 8.45595 13.7041C8.84296 14.0116 9.5765 14.2192 8.92886 14.3486C9.94743 15.2471 8.68043 14.5921 8.30763 14.2257ZM13.4334 17.2322C13.6279 15.659 13.605 18.1539 13.4334 17.2322V17.2322ZM7.71964 12.7726C7.93468 12.6807 7.83321 13.0591 7.71964 12.7726V12.7726ZM9.05666 13.5684C9.40076 12.8464 9.69143 14.3737 9.05666 13.5684V13.5684ZM12.8281 15.6664C12.8244 15.3891 12.8992 16.0698 12.8281 15.6664V15.6664ZM12.6096 15.1827C12.0862 13.8913 13.0965 15.8665 12.6096 15.1827V15.1827ZM12.2882 14.336C12.2004 13.8024 12.5868 15.0064 12.2882 14.336L12.2882 14.336ZM12.8113 13.4857C12.4521 12.8527 13.2649 10.6962 13.3556 12.0337C12.9765 13.0758 13.2462 13.6588 13.5107 12.261C13.9991 11.1609 13.4052 14.4318 12.8113 13.4858L12.8113 13.4857ZM13.3488 10.2787C13.5054 10.0864 13.3836 10.5103 13.3488 10.2787V10.2787ZM12.4511 27.9674C12.2382 27.7816 12.4779 28.0857 12.4511 27.9674V27.9674ZM14.3004 28.9029C15.3291 29.1668 15.3239 28.7429 14.3941 28.6169C13.8941 28.1517 12.3162 27.6583 13.7285 28.5592C13.822 28.7961 14.1176 28.7906 14.3004 28.9029ZM10.6482 26.4771C11.2149 26.8997 12.7828 27.6748 11.4555 26.6379C11.903 26.118 10.5989 25.8413 11.0315 25.4935C9.93125 24.8202 10.1636 24.8801 10.9344 24.9013C9.61208 24.3102 11.1253 24.3544 11.054 24.0516C10.5441 23.9509 8.52146 23.1525 9.7114 24.1172C8.50175 23.5004 9.42314 24.3469 9.05752 24.2574C7.82057 23.9202 10.1591 25.1995 8.86107 24.8819C9.5707 25.4443 10.7712 26.3224 9.16109 25.4771C8.94894 25.7824 10.3133 26.2453 10.6482 26.4771ZM12.5823 27.5882C14.934 28.346 11.4293 26.6624 12.5823 27.5882V27.5882ZM22.4832 33.5862C22.5136 33.1197 22.1618 33.9842 22.4832 33.5862V33.5862ZM23.5009 34.0145C24.0435 33.4888 23.5231 34.852 24.3999 33.8858C24.4094 33.1941 24.3729 32.7856 23.3923 33.6258C23.1219 33.7757 23.0012 34.4132 23.5009 34.0145ZM7.34709 23.8696C7.18046 23.2146 6.17907 23.218 7.34709 23.8696V23.8696ZM8.43373 24.5817C8.03022 23.9127 6.99398 23.976 8.43373 24.5817V24.5817ZM14.6157 28.3099C15.2192 28.846 17.3877 28.7033 15.3487 28.3759C15.0468 27.9294 13.4311 28.0368 14.6157 28.3099ZM23.1138 33.5582C24.0427 32.7787 22.2138 33.9059 23.1138 33.5582V33.5582ZM25.0458 34.8858C25.0516 34.6357 24.6454 34.9954 25.0458 34.8858V34.8858ZM25.0487 34.5356C26.0774 33.4457 24.052 34.6001 25.0487 34.5356H25.0487ZM4.67443 21.6321C3.79769 20.3812 4.12943 19.8189 3.28394 18.7975C3.12388 18.0164 1.83349 16.2439 2.61652 18.1217C3.33373 19.2199 3.54686 20.9203 4.67443 21.6321ZM24.7261 34.1892C26.6186 32.966 23.9492 33.6563 24.7261 34.1892V34.1892ZM26.1708 34.7551C27.1185 33.9414 25.5713 34.5849 26.1708 34.7551V34.7551ZM7.025 22.4869C7.29623 22.0834 6.3245 22.4353 7.025 22.4869V22.4869ZM25.8691 34.3687C26.7867 33.7771 25.6577 33.8679 25.7028 34.4231L25.8691 34.3687H25.8691ZM13.4159 26.5194C13.3843 26.1199 12.9313 26.5533 13.4159 26.5194V26.5194ZM14.1855 26.9622C13.9409 26.4677 13.8094 27.0399 14.1855 26.9622V26.9622ZM27.3415 34.7685C28.5171 33.9205 26.6289 34.6062 27.0948 34.9292L27.3415 34.7685ZM26.8914 34.551C27.849 33.7485 25.8803 34.9066 26.8914 34.551V34.551ZM29.1914 36.0826C29.8343 35.652 28.4102 35.9433 29.1914 36.0826V36.0826ZM7.6147 22.1959C8.47659 22.3891 11.059 24.3186 9.5355 22.3294C8.75521 22.0984 9.22317 20.191 8.42727 20.5286C8.96148 21.4211 8.86679 21.8009 7.74519 21.2383C6.33551 20.5502 6.95299 21.5793 7.22849 21.8629C6.85306 21.9482 7.72509 22.1888 7.6147 22.1959ZM3.68794 19.0948C3.84224 18.4566 2.26717 15.5838 2.94417 17.6553C3.18854 18.0893 3.1637 18.9117 3.68794 19.0948ZM10.8952 23.5383C10.4514 23.1671 10.8741 23.4857 10.8952 23.5383V23.5383ZM11.9881 23.7926C11.9876 23.1166 10.7801 23.5181 11.9881 23.7926V23.7926ZM21.4591 29.7632C21.2785 29.3013 20.7451 29.7525 21.4591 29.7632L21.4591 29.7632ZM21.9139 30.0954C21.8468 29.8369 21.6515 30.1453 21.9139 30.0954V30.0954ZM25.6679 32.4599C26.0289 32.1932 25.2173 32.4259 25.6679 32.4599V32.4599ZM5.64938 19.5956C6.68208 19.1957 4.54292 19.3105 5.64938 19.5956V19.5956ZM20.6253 29.0305C20.6139 28.3619 19.967 29.1964 20.6253 29.0305V29.0305ZM5.24136 18.6448C5.90472 18.4207 4.6277 18.4972 5.24136 18.6448V18.6448ZM7.16678 19.5774C7.15475 19.3577 6.96311 19.6606 7.16678 19.5774V19.5774ZM30.6512 33.9784C31.5042 33.8054 33.448 34.4126 33.7622 33.7522C32.7263 33.7271 30.1783 33.0214 30.0578 33.9206L30.2845 33.9563L30.6512 33.9784ZM7.77873 19.7316C7.79356 19.0542 7.25044 19.7063 7.77873 19.7316V19.7316ZM2.71631 16.22C2.48641 14.9292 1.8419 16.0246 2.71631 16.22V16.22ZM3.92352 16.5234C3.93835 16.1089 2.81856 16.1505 3.92352 16.5234V16.5234ZM4.6134 16.8622C4.41398 16.7007 4.4573 17.0663 4.6134 16.8622V16.8622ZM8.95423 19.6469C9.15858 19.4591 8.47042 19.5078 8.95423 19.6469V19.6469ZM4.1539 16.0981C4.03722 15.1232 2.7557 15.952 4.1539 16.0981V16.0981ZM1.67895 14.4922C1.64375 14.0422 1.43776 14.6619 1.67895 14.4922V14.4922ZM2.04709 14.2141C1.98703 13.6806 1.73101 14.282 2.04709 14.2141V14.2141ZM4.08116 15.4283C4.94128 15.0904 2.51445 14.7294 3.90541 15.3645L4.08116 15.4283ZM31.3041 32.2434C31.8546 31.7387 30.6044 32.0874 31.3041 32.2434V32.2434ZM34.5928 33.9482C34.8134 33.2956 34.0373 34.0341 34.5928 33.9482V33.9482ZM4.28904 14.3622C4.37965 13.7309 3.60714 14.4875 4.28904 14.3622V14.3622ZM1.39504 12.4232C1.23958 11.532 1.26084 9.96767 2.74787 10.4963C0.762937 10.8904 4.12167 12.9634 3.69752 11.3267C4.53214 11.3676 5.33023 10.8335 4.89223 11.644C6.53668 11.4624 7.67675 10.0364 9.26517 10.2363C10.5025 10.0725 11.8553 9.94834 13.1887 9.45028C14.2849 9.3713 15.3402 8.191 14.7393 7.49141C13.2443 7.36492 11.6794 7.55197 10.027 7.88041C8.19596 8.26106 6.53275 8.98426 4.68526 9.2947C2.88448 9.5366 5.04747 9.96119 4.53165 10.0558C3.59198 10.3818 5.65229 10.6017 4.40983 10.9454C3.64251 10.7995 2.84383 10.5359 3.1716 9.72724C1.44661 9.95108 -0.0691649 10.667 1.29368 12.4224L1.39504 12.4232L1.39504 12.4231V12.4232ZM5.55164 10.3063C5.95609 8.81634 7.71847 11.5323 6.21456 10.5042C6.03493 10.3698 5.7395 10.2601 5.55164 10.3063ZM5.63033 9.58392C6.21407 9.14904 5.94064 9.82773 5.63033 9.58392V9.58392ZM6.37154 9.59568C6.42423 8.91008 8.06829 9.95864 6.64262 9.84249L6.37154 9.59568ZM7.38545 9.18802C7.75571 8.75539 7.49187 9.57285 7.38545 9.18802V9.18802ZM7.64482 9.01434C8.26135 8.27355 11.1363 8.54155 9.03193 8.94211C8.46789 8.51746 8.03553 9.19249 7.64482 9.01434ZM11.3967 8.43599C11.3029 6.4125 13.2606 9.15508 11.3967 8.43599V8.43599ZM12.4612 8.43017C12.8505 7.4103 13.9716 8.02092 12.6414 8.22523C12.6702 8.33376 12.6023 8.75174 12.4612 8.43017ZM3.86925 13.8387C5.03216 13.1266 2.63469 13.2209 3.86925 13.8387V13.8387ZM4.7291 14.0776C5.13683 13.6441 3.84317 13.9018 4.7291 14.0776V14.0776ZM2.19557 12.2796C2.86006 11.7691 1.40925 12.0855 2.19557 12.2796V12.2796ZM36.534 33.7617C36.5532 33.1695 36.0261 34.0285 36.534 33.7617V33.7617ZM33.0448 31.3805C33.144 30.6987 32.5964 31.44 33.0448 31.3805V31.3805ZM37.4935 33.9913C38.4225 33.9944 40.3084 33.7028 38.287 33.7037C37.9698 33.7532 36.4386 33.7426 37.4935 33.9913V33.9913ZM5.48544 13.6597C6.23733 13.6081 6.66182 12.8303 5.34003 12.875C3.29148 12.663 7.14743 13.5765 5.07723 13.3153C4.79906 13.4995 5.46929 13.7107 5.48544 13.6597ZM6.14764 13.9949C6.06913 13.5121 5.91513 14.2513 6.14764 13.9949V13.9949ZM6.93314 11.9003C7.25942 11.4956 6.48164 11.7921 6.93314 11.9003V11.9003ZM4.43258 7.7205C5.77448 7.26399 7.60949 6.75102 8.24309 7.94527C7.59827 7.16918 7.98287 6.40516 8.5919 7.53987C9.45309 8.68795 9.88421 7.01769 9.32409 6.6326C9.9624 7.4257 10.6884 7.80048 9.75146 6.68273C10.7696 5.458 7.7128 6.8431 7.01801 6.82915C6.68372 6.9792 3.56673 7.62407 4.43258 7.7205ZM5.21901 6.21435C5.9843 5.63673 7.8658 6.55794 6.65845 5.6403C6.54041 5.53603 4.01436 6.33616 5.21901 6.21435ZM8.00904 6.32954C8.90471 6.35239 7.62269 5.12629 8.69 5.68187C8.51471 5.10924 7.44736 5.00203 6.92554 4.77325C6.6304 5.2968 7.52629 6.33657 8.00904 6.32954ZM5.70823 3.79689C6.01809 3.37684 5.16518 4.00984 5.70823 3.79689V3.79689ZM6.84855 4.06982C8.29193 3.87838 6.48063 3.44824 6.55771 4.05444L6.84855 4.06982V4.06982V4.06982ZM4.71933 2.40376C3.70304 1.07707 6.63062 2.62677 5.59806 1.23768C4.72899 0.545643 3.89387 2.01646 4.71933 2.40376ZM17.7619 9.42886C18.228 8.60254 15.8374 8.31502 17.4478 9.136C17.5961 9.18555 17.5626 9.48601 17.7619 9.42886Z" fill="black"/>
</svg>
