<svg width="88" height="27" viewBox="0 0 88 27" fill="none" xmlns="http://www.w3.org/2000/svg">
<mask id="mask0_6067_109147" style="mask-type:luminance" maskUnits="userSpaceOnUse" x="0" y="0" width="88" height="27">
<path d="M88 0.727295H0V26.7273H88V0.727295Z" fill="white"/>
</mask>
<g mask="url(#mask0_6067_109147)">
<path d="M77.4475 26.523C77.2199 26.523 77.0075 26.4623 76.8104 26.3561L74.793 25.1579C74.4897 24.991 74.6414 24.9303 74.7324 24.9C75.1419 24.7635 75.2177 24.7331 75.6424 24.4905C75.6879 24.4601 75.7487 24.4753 75.7942 24.5057L77.3413 25.4309C77.4019 25.4612 77.4777 25.4612 77.5232 25.4309L83.5754 21.9271C83.6357 21.8968 83.6666 21.8361 83.6666 21.7603V14.768C83.6666 14.6922 83.6357 14.6315 83.5754 14.6012L77.5232 11.1126C77.4626 11.0823 77.3867 11.0823 77.3413 11.1126L71.2893 14.6012C71.2286 14.6315 71.1983 14.7073 71.1983 14.768V21.7603C71.1983 21.821 71.2286 21.8968 71.2893 21.9271L72.9426 22.8827C73.8375 23.3377 74.3987 22.8068 74.3987 22.276V15.3747C74.3987 15.2837 74.4745 15.1927 74.5807 15.1927H75.3542C75.4453 15.1927 75.5363 15.2685 75.5363 15.3747V22.276C75.5363 23.4743 74.884 24.1719 73.7465 24.1719C73.3976 24.1719 73.1246 24.1719 72.351 23.7928L70.7583 22.8827C70.364 22.6552 70.1213 22.2305 70.1213 21.7754V14.7832C70.1213 14.3281 70.364 13.9034 70.7583 13.6759L76.8104 10.1722C77.1896 9.95986 77.7053 9.95986 78.0845 10.1722L84.1367 13.6759C84.5307 13.9034 84.7733 14.3281 84.7733 14.7832V21.7754C84.7733 22.2305 84.5307 22.6552 84.1367 22.8827L78.0845 26.3864C77.9024 26.4623 77.675 26.523 77.4475 26.523Z" fill="#5FA04E"/>
<path d="M79.3284 21.7147C76.6737 21.7147 76.1277 20.5013 76.1277 19.4699C76.1277 19.3789 76.2035 19.2879 76.3096 19.2879H77.0984C77.1894 19.2879 77.2653 19.3485 77.2653 19.4395C77.3866 20.2434 77.7355 20.6378 79.3435 20.6378C80.6175 20.6378 81.1637 20.3496 81.1637 19.6671C81.1637 19.2727 81.0115 18.9845 79.0247 18.7873C77.3714 18.6205 76.34 18.2565 76.34 16.9368C76.34 15.7083 77.3714 14.9802 79.1006 14.9802C81.0424 14.9802 81.9978 15.6476 82.1191 17.1037C82.1191 17.1493 82.104 17.1947 82.0739 17.2403C82.043 17.2706 81.9978 17.3009 81.9518 17.3009H81.1479C81.0726 17.3009 80.9965 17.2403 80.9814 17.1644C80.7991 16.3302 80.3289 16.0572 79.0854 16.0572C77.69 16.0572 77.5231 16.5425 77.5231 16.9065C77.5231 17.3464 77.7202 17.4829 79.6012 17.7256C81.4666 17.9683 82.3466 18.3171 82.3466 19.6215C82.3466 20.9563 81.2391 21.7147 79.3284 21.7147Z" fill="#5FA04E"/>
<path d="M88.0659 14.3734C88.0659 15.0105 87.5347 15.5414 86.8973 15.5414C86.2607 15.5414 85.7295 15.0256 85.7295 14.3734C85.7295 13.7061 86.2757 13.2056 86.8973 13.2056C87.5196 13.2056 88.0659 13.7212 88.0659 14.3734ZM85.9118 14.3734C85.9118 14.9195 86.3518 15.3594 86.8822 15.3594C87.4284 15.3594 87.8684 14.9043 87.8684 14.3734C87.8684 13.8274 87.4284 13.4028 86.8822 13.4028C86.3669 13.4028 85.9118 13.8274 85.9118 14.3734ZM86.4581 13.7212H86.9131C87.0646 13.7212 87.3682 13.7212 87.3682 14.0701C87.3682 14.3128 87.216 14.3583 87.1248 14.3886C87.3072 14.4038 87.3222 14.5252 87.3373 14.692C87.3523 14.7982 87.3682 14.9802 87.3983 15.0409H87.1248C87.1248 14.9802 87.0796 14.6465 87.0796 14.6313C87.0646 14.5555 87.0344 14.5252 86.9433 14.5252H86.7157V15.056H86.4581V13.7212ZM86.7007 14.2976H86.8973C87.0646 14.2976 87.0947 14.1763 87.0947 14.1156C87.0947 13.9336 86.9734 13.9336 86.8973 13.9336H86.6856V14.2976H86.7007Z" fill="#5FA04E"/>
<path fill-rule="evenodd" clip-rule="evenodd" d="M14.3943 14.4691C14.3943 14.1961 14.2427 13.9383 14 13.8017L7.58397 10.0856C7.47779 10.025 7.35644 9.99462 7.2351 9.97949C7.21993 9.97949 7.17443 9.97949 7.17443 9.97949C7.05309 9.97949 6.93174 10.025 6.82557 10.0856L0.394366 13.7865C0.151679 13.9231 0 14.1809 0 14.4691L0.0151679 24.4191C0.0151679 24.5556 0.0910079 24.6921 0.212351 24.7528C0.333694 24.8286 0.485374 24.8286 0.59155 24.7528L4.41387 22.5686C4.65656 22.4322 4.80823 22.1743 4.80823 21.9013V17.2448C4.80823 16.9718 4.95991 16.7139 5.2026 16.5774L6.82557 15.637C6.94691 15.5611 7.08342 15.5308 7.21993 15.5308C7.35644 15.5308 7.49295 15.5611 7.59913 15.637L9.22208 16.5774C9.46476 16.7139 9.6165 16.9718 9.6165 17.2448V21.9013C9.6165 22.1743 9.76816 22.4322 10.0108 22.5686L13.8028 24.7528C13.9241 24.8286 14.0758 24.8286 14.1972 24.7528C14.3186 24.6921 14.3943 24.5556 14.3943 24.4191V14.4691Z" fill="#333333"/>
<path fill-rule="evenodd" clip-rule="evenodd" d="M45.3066 0.772798C45.1853 0.712127 45.0336 0.712127 44.9274 0.772798C44.8061 0.848636 44.7302 0.969978 44.7302 1.10649V10.9655C44.7302 11.0565 44.6847 11.1475 44.5937 11.2082C44.5027 11.2537 44.4117 11.2537 44.3207 11.2082L42.7128 10.2829C42.4702 10.1465 42.182 10.1465 41.9393 10.2829L35.5081 13.999C35.2654 14.1356 35.1138 14.3934 35.1138 14.6664V22.0834C35.1138 22.3565 35.2654 22.6143 35.5081 22.7508L41.9393 26.4669C42.182 26.6034 42.4702 26.6034 42.7128 26.4669L49.1441 22.7508C49.3867 22.6143 49.5385 22.3565 49.5385 22.0834V3.59399C49.5385 3.3058 49.3867 3.04795 49.1441 2.91144L45.3066 0.772798ZM44.715 19.6414C44.715 19.7172 44.6847 19.7779 44.624 19.8082L42.4247 21.0824C42.364 21.1127 42.2881 21.1127 42.2275 21.0824L40.0281 19.8082C39.9675 19.7779 39.9371 19.7021 39.9371 19.6414V17.0933C39.9371 17.0174 39.9675 16.9567 40.0281 16.9264L42.2275 15.6523C42.2881 15.622 42.364 15.622 42.4247 15.6523L44.624 16.9264C44.6847 16.9567 44.715 17.0326 44.715 17.0933V19.6414Z" fill="#333333"/>
<path fill-rule="evenodd" clip-rule="evenodd" d="M66.7079 17.0326C66.9507 16.8961 67.0871 16.6383 67.0871 16.3652V14.5602C67.0871 14.2872 66.9355 14.0294 66.7079 13.8929L60.3222 10.192C60.0796 10.0555 59.7914 10.0555 59.5487 10.192L53.1175 13.908C52.8748 14.0446 52.7231 14.3024 52.7231 14.5754V21.9925C52.7231 22.2655 52.8748 22.5233 53.1175 22.6598L59.5032 26.3C59.7459 26.4366 60.034 26.4366 60.2616 26.3L64.1294 24.1463C64.2508 24.0856 64.3266 23.9491 64.3266 23.8125C64.3266 23.6761 64.2508 23.5395 64.1294 23.4789L57.6679 19.7628C57.5465 19.687 57.4707 19.5656 57.4707 19.4291V17.1085C57.4707 16.9719 57.5465 16.8354 57.6679 16.7747L59.6852 15.622C59.8066 15.5462 59.9583 15.5462 60.0796 15.622L62.0969 16.7747C62.2183 16.8506 62.2941 16.9719 62.2941 17.1085V18.9286C62.2941 19.0651 62.3699 19.2016 62.4913 19.2622C62.6126 19.3381 62.7643 19.3381 62.8856 19.2622L66.7079 17.0326Z" fill="#333333"/>
<path fill-rule="evenodd" clip-rule="evenodd" d="M59.8371 16.6839C59.8826 16.6535 59.9433 16.6535 59.9888 16.6839L61.2174 17.3968C61.2629 17.4271 61.2932 17.4726 61.2932 17.5333V18.959C61.2932 19.0197 61.2629 19.0652 61.2174 19.0956L59.9888 19.8085C59.9433 19.8388 59.8826 19.8388 59.8371 19.8085L58.6085 19.0956C58.563 19.0652 58.5327 19.0197 58.5327 18.959V17.5333C58.5327 17.4726 58.563 17.4271 58.6085 17.3968L59.8371 16.6839Z" fill="#5FA04E"/>
<path d="M25.1479 10.2222C24.9051 10.0858 24.6169 10.0858 24.3743 10.2222L17.9886 13.908C17.7459 14.0445 17.6094 14.3023 17.6094 14.5754V21.962C17.6094 22.2351 17.761 22.4929 17.9886 22.6294L24.3743 26.3152C24.6169 26.4517 24.9051 26.4517 25.1479 26.3152L31.5335 22.6294C31.7763 22.4929 31.9127 22.2351 31.9127 21.962V14.5754C31.9127 14.3023 31.761 14.0445 31.5335 13.908L25.1479 10.2222Z" fill="url(#paint0_linear_6067_109147)"/>
<path d="M31.5489 13.9081L25.1329 10.2223C25.0722 10.1919 24.9963 10.1616 24.9357 10.1465L17.7461 22.4475C17.8067 22.5233 17.8826 22.5839 17.9584 22.6295L24.3745 26.3153C24.5565 26.4214 24.7688 26.4517 24.966 26.391L31.7157 14.0446C31.6702 13.9839 31.6096 13.9384 31.5489 13.9081Z" fill="url(#paint1_linear_6067_109147)"/>
<path d="M31.5489 22.6292C31.731 22.523 31.8675 22.341 31.9281 22.1438L24.9053 10.131C24.7234 10.1007 24.5261 10.1158 24.3593 10.222L17.9888 13.8926L24.8598 26.4211C24.9508 26.4059 25.0571 26.3756 25.1481 26.3301L31.5489 22.6292Z" fill="url(#paint2_linear_6067_109147)"/>
</g>
<defs>
<linearGradient id="paint0_linear_6067_109147" x1="27.3618" y1="12.9673" x2="21.5882" y2="24.7454" gradientUnits="userSpaceOnUse">
<stop stop-color="#3F873F"/>
<stop offset="0.3296" stop-color="#3F8B3D"/>
<stop offset="0.6367" stop-color="#3E9638"/>
<stop offset="0.9341" stop-color="#3DA92E"/>
<stop offset="1" stop-color="#3DAE2B"/>
</linearGradient>
<linearGradient id="paint1_linear_6067_109147" x1="23.7907" y1="19.1313" x2="39.991" y2="7.16147" gradientUnits="userSpaceOnUse">
<stop offset="0.1376" stop-color="#3F873F"/>
<stop offset="0.4016" stop-color="#52A044"/>
<stop offset="0.7129" stop-color="#64B749"/>
<stop offset="0.9081" stop-color="#6ABF4B"/>
</linearGradient>
<linearGradient id="paint2_linear_6067_109147" x1="17.3755" y1="18.2661" x2="32.1516" y2="18.2661" gradientUnits="userSpaceOnUse">
<stop offset="0.0919165" stop-color="#6ABF4B"/>
<stop offset="0.2871" stop-color="#64B749"/>
<stop offset="0.5984" stop-color="#52A044"/>
<stop offset="0.8624" stop-color="#3F873F"/>
</linearGradient>
</defs>
</svg>
