<svg width="36" height="41" viewBox="0 0 36 41" fill="none" xmlns="http://www.w3.org/2000/svg">
<path d="M31.2154 8.50729C31.1924 8.29629 31.0044 8.2023 30.8644 8.2023C30.7244 8.2023 27.6544 7.9683 27.6544 7.9683C27.6544 7.9683 25.5224 5.83629 25.2644 5.62529C25.0304 5.39129 24.5844 5.4613 24.3974 5.5083C24.3744 5.5083 23.9284 5.64929 23.2024 5.8833C22.4764 3.7973 21.2344 1.89929 19.0084 1.89929H18.7974C18.1864 1.10229 17.3904 0.727295 16.7344 0.727295C11.5794 0.727295 9.09542 7.1713 8.32242 10.4523C6.30742 11.0853 4.87742 11.5063 4.71342 11.5773C3.58842 11.9283 3.56542 11.9523 3.42442 13.0063C3.30742 13.8033 0.378418 36.4623 0.378418 36.4623L23.1784 40.7273L35.5514 38.0563C35.5744 38.0093 31.2394 8.71829 31.2154 8.50729ZM21.9364 6.21029C21.3744 6.37429 20.6944 6.58529 20.0154 6.81929V6.39829C20.0154 5.13329 19.8514 4.10229 19.5464 3.28129C20.7174 3.42229 21.4444 4.71129 21.9364 6.21029ZM18.1164 3.53929C18.4214 4.33629 18.6324 5.46129 18.6324 7.00729V7.24129C17.3674 7.63929 16.0314 8.03829 14.6484 8.48329C15.4214 5.53129 16.8984 4.07829 18.1164 3.53929ZM16.6164 2.0863C16.8504 2.0863 17.0854 2.18029 17.2724 2.32029C15.6084 3.09329 13.8514 5.03829 13.1244 8.9753C12.0234 9.32629 10.9684 9.6313 9.96142 9.9593C10.8054 6.9603 12.9144 2.0863 16.6164 2.0863Z" fill="#7CB342"/>
<path d="M30.8645 8.15526C30.7235 8.15526 27.6545 7.92126 27.6545 7.92126C27.6545 7.92126 25.5225 5.78926 25.2645 5.57826C25.1695 5.48426 25.0525 5.43726 24.9595 5.43726L23.2485 40.7273L35.6215 38.0563C35.6215 38.0563 31.2865 8.71826 31.2625 8.50726C31.1685 8.29626 31.0045 8.20226 30.8645 8.15526Z" fill="#558B2F"/>
<path d="M18.7914 15.3203L17.3164 19.7693C17.3164 19.7693 15.9794 19.0543 14.3894 19.0543C12.0154 19.0543 11.9004 20.5523 11.9004 20.9213C11.9004 22.9493 17.2014 23.7333 17.2014 28.5043C17.2014 32.2613 14.8274 34.6813 11.6234 34.6813C7.75143 34.6813 5.81543 32.2843 5.81543 32.2843L6.85243 28.8733C6.85243 28.8733 8.88043 30.6253 10.5864 30.6253C11.7154 30.6253 12.1764 29.7493 12.1764 29.1043C12.1764 26.4533 7.84343 26.3383 7.84343 21.9593C7.84343 18.2943 10.4714 14.7453 15.7954 14.7453C17.7764 14.7213 18.7914 15.3203 18.7914 15.3203Z" fill="white"/>
</svg>
