<svg width="300" height="48" viewBox="0 0 300 48" fill="none" xmlns="http://www.w3.org/2000/svg">
<rect width="48" height="48" rx="4" fill="white"/>
<path d="M24.0002 30.6387C15.116 30.6387 8.16016 27.6084 8.16016 23.7517C8.16016 19.895 15.116 16.8647 24.0002 16.8647C32.8843 16.8647 39.8402 19.895 39.8402 23.7517C39.8402 27.6084 32.8843 30.6387 24.0002 30.6387ZM24.0002 18.2421C15.3226 18.2421 9.53755 21.0658 9.53755 23.7517C9.53755 26.4376 15.3226 29.2613 24.0002 29.2613C32.6777 29.2613 38.4628 26.4376 38.4628 23.7517C38.4628 21.0658 32.6777 18.2421 24.0002 18.2421Z" fill="#61DAFB"/>
<path d="M17.8715 37.9389C17.1828 37.9389 16.6319 37.8012 16.0809 37.4568C12.7063 35.5285 13.6016 28.0217 18.0093 20.3083C20.0753 16.7271 22.6235 13.6968 25.1028 11.7685C27.7887 9.70238 30.1992 9.08255 31.852 10.0467C33.5738 11.0109 34.1936 13.4213 33.7804 16.7959C33.3672 19.9639 31.9898 23.6829 29.9237 27.2641C27.8576 30.8453 25.3094 33.8756 22.8301 35.804C21.0395 37.1813 19.3178 37.9389 17.8715 37.9389ZM30.1303 10.942C29.0284 10.942 27.5821 11.5619 25.9981 12.8015C23.6566 14.661 21.2461 17.5535 19.2489 20.997C14.9101 28.5038 14.4969 34.9775 16.7696 36.286C17.9404 36.9747 19.8687 36.3549 22.0037 34.702C24.3453 32.8426 26.7557 29.95 28.7529 26.5066C30.7501 23.0631 32.0587 19.5507 32.4719 16.5893C32.8162 13.8346 32.403 11.9062 31.2322 11.2175C30.8879 11.0798 30.5435 10.942 30.1303 10.942Z" fill="#61DAFB"/>
<path d="M30.1984 37.939C26.7549 37.939 21.7963 33.738 18.0773 27.1954C13.6008 19.482 12.7055 11.9752 16.0801 10.0469C19.4547 8.11852 25.5152 12.595 29.9918 20.3084C32.0578 23.8897 33.4352 27.6086 33.8484 30.7766C34.3305 34.1512 33.6418 36.4928 31.9201 37.5258C31.3691 37.8013 30.8182 37.939 30.1984 37.939ZM16.7688 11.2177C14.4961 12.5262 14.9093 18.9999 19.2481 26.5067C23.5869 34.0135 28.9587 37.5947 31.2314 36.2862C32.4022 35.5975 32.8154 33.6691 32.4711 30.9144C32.0578 27.953 30.7493 24.4406 28.7521 20.9971C24.4133 13.4903 19.0415 9.90913 16.7688 11.2177Z" fill="#61DAFB"/>
<path d="M23.9989 26.5057C25.5203 26.5057 26.7537 25.2724 26.7537 23.7509C26.7537 22.2295 25.5203 20.9962 23.9989 20.9962C22.4775 20.9962 21.2441 22.2295 21.2441 23.7509C21.2441 25.2724 22.4775 26.5057 23.9989 26.5057Z" fill="#61DAFB"/>
<rect x="63" width="48" height="48" rx="4" fill="white"/>
<path d="M71.1602 10.56L75.2924 13.3148V27.0889L71.1602 24.3341V10.56Z" fill="#29B6F6"/>
<path d="M102.84 20.8907L98.708 23.6455V32.5987L102.84 29.8439V20.8907Z" fill="#0288D1"/>
<path d="M102.84 11.2488L98.708 14.0036V18.8245L102.84 16.0697V11.2488Z" fill="#0288D1"/>
<path d="M94.5756 10.56L90.4434 13.3148V27.0889L94.5756 24.3341V10.56Z" fill="#0288D1"/>
<path d="M71.1602 15.3809L82.8681 22.9567V18.1358L71.1602 10.56V15.3809Z" fill="#29B6F6"/>
<path d="M94.5752 15.3809L82.8672 22.9567V18.1358L94.5752 10.56V15.3809Z" fill="#0288D1"/>
<path d="M94.5752 25.0228L82.8672 32.5986V27.7777L94.5752 20.2019V25.0228Z" fill="#0288D1"/>
<path d="M102.84 30.5326L91.1318 38.1084V33.2874L102.84 25.7117V30.5326Z" fill="#0288D1"/>
<path d="M91.1316 33.1256L82.8672 27.7778V32.5987L91.1316 37.9465V33.1256Z" fill="#29B6F6"/>
<rect x="126" width="48" height="48" rx="4" fill="white"/>
<path d="M138.16 40.32C135.951 40.32 134.16 38.5292 134.16 36.32V12.64C134.16 10.4309 135.951 8.64001 138.16 8.64001H161.84C164.049 8.64001 165.84 10.4309 165.84 12.64V36.32C165.84 38.5292 164.049 40.32 161.84 40.32H138.16Z" fill="#FFD600"/>
<path d="M154.873 32.3535C155.482 33.3426 156.144 34.2903 157.546 34.2903C158.723 34.2903 159.341 33.7051 159.341 32.8955C159.341 31.9267 158.702 31.5826 157.407 31.0185L156.697 30.7158C154.647 29.8463 153.284 28.7569 153.284 26.4557C153.284 24.3349 154.908 22.721 157.445 22.721C159.251 22.721 160.549 23.3467 161.486 24.9852L159.273 26.3994C158.787 25.5299 158.261 25.1876 157.445 25.1876C156.612 25.1876 156.085 25.713 156.085 26.3994C156.085 27.2477 156.613 27.5909 157.832 28.1163L158.542 28.419C160.958 29.4477 162.32 30.4984 162.32 32.8603C162.32 35.4053 160.31 36.8001 157.612 36.8001C154.973 36.8001 153.474 35.4757 152.64 33.8363L154.873 32.3535ZM144.678 32.4256C145.123 33.2229 145.8 33.8363 146.773 33.8363C147.704 33.8363 148.24 33.4684 148.24 32.0384V22.7201H151.173V32.489C151.173 35.4519 149.454 36.8001 146.945 36.8001C144.677 36.8001 143.04 35.2636 142.373 33.8363L144.678 32.4256Z" fill="#000001"/>
<rect x="189" width="48" height="48" rx="4" fill="white"/>
<path d="M224 9.59991H202C199.791 9.59991 198 11.3908 198 13.5999V35.5999C198 37.8091 199.791 39.5999 202 39.5999H224C226.209 39.5999 228 37.8091 228 35.5999V13.5999C228 11.3908 226.209 9.59991 224 9.59991Z" fill="#1976D2"/>
<path d="M215.908 22.9333H204.855V25.6533H208.82V37.9333H211.96V25.6533H215.908V22.9333Z" fill="#141414"/>
<path d="M225.661 26.3365C225.661 26.3365 224.172 25.3432 222.489 25.3432C220.805 25.3432 220.2 26.1432 220.2 26.9982C220.2 29.2048 226.35 28.984 226.35 33.4248C226.35 40.2657 216.972 37.2315 216.972 37.2315V33.9498C216.972 33.9498 218.765 35.3015 220.916 35.3015C223.067 35.3015 222.985 33.8948 222.985 33.7015C222.985 31.6607 216.89 31.6607 216.89 27.1365C216.89 20.9857 225.771 23.4123 225.771 23.4123L225.661 26.3365Z" fill="#141414"/>
<rect x="252" width="48" height="48" rx="4" fill="white"/>
<g clip-path="url(#clip0_558_6051)">
<path d="M271.002 39C273.762 39 276.002 36.76 276.002 34V29H271.002C268.242 29 266.002 31.24 266.002 34C266.002 36.76 268.242 39 271.002 39Z" fill="#0ACF83"/>
<path d="M266.002 24C266.002 21.24 268.242 19 271.002 19H276.002V29H271.002C268.242 29 266.002 26.76 266.002 24Z" fill="#A259FF"/>
<path d="M266.002 14C266.002 11.24 268.242 9 271.002 9H276.002V19H271.002C268.242 19 266.002 16.76 266.002 14Z" fill="#F24E1E"/>
<path d="M276.002 9H281.002C283.762 9 286.002 11.24 286.002 14C286.002 16.76 283.762 19 281.002 19H276.002V9Z" fill="#FF7262"/>
<path d="M286.002 24C286.002 26.76 283.762 29 281.002 29C278.242 29 276.002 26.76 276.002 24C276.002 21.24 278.242 19 281.002 19C283.762 19 286.002 21.24 286.002 24Z" fill="#1ABCFE"/>
</g>
<defs>
<clipPath id="clip0_558_6051">
<rect width="20.004" height="30" fill="white" transform="translate(266 9)"/>
</clipPath>
</defs>
</svg>
